<?xml version="1.0" encoding="UTF-8"?>
<svg xmlns="http://www.w3.org/2000/svg" version="1.1" viewBox="0 0 578.1 288">
  <!-- Generator: Adobe Illustrator 29.4.0, SVG Export Plug-In . SVG Version: 2.1.0 Build 152)  -->
  <defs>
    <style>
      .st0 {
        fill: #fcbd56;
      }
    </style>
  </defs>
  <g id="Layer_1">
    <path class="st0" d="M256.7,144.8h20.2s.6,7.8-5.9,14.3c-6.5,6.5-14.3,5.9-14.3,5.9v-20.2ZM256.8,207.2s24.4,1.4,44-18.3c19.6-19.6,18.3-44.1,18.3-44.1h-22.9s.9,15.4-11.5,27.8c-12.5,12.5-27.8,11.5-27.8,11.5v23ZM256.8,232.9s34.5,1.9,62.2-25.8c27.7-27.7,25.8-62.2,25.8-62.2h-6.3s1.7,32.1-23.9,57.7c-25.7,25.7-57.7,23.9-57.7,23.9v6.4ZM256.7,144.8v-20.2s-7.8-.6-14.3,5.9c-6.5,6.5-5.9,14.3-5.9,14.3h20.2ZM217.4,144.8s-.9-15.4,11.5-27.8c12.5-12.5,27.9-11.5,27.9-11.5v-22.9s-24.5-1.4-44.1,18.3c-19.6,19.6-18.3,44-18.3,44h23ZM175,144.7s-1.7-32,23.9-57.7c25.7-25.7,57.8-24,57.8-24v-6.2s-34.6-2-62.3,25.6c-27.7,27.7-25.8,62.2-25.8,62.2h6.4Z"/>
    <g>
      <path d="M294,89.3l5.3,8.7h-7.4l-4.4-7.4h-7.4v7.4h-6.6v-21.6h16.7c2.1,0,3.7.3,5,.8,1.3.5,2.2,1.3,2.8,2.3.6,1,.9,2.3.9,3.9s-.2,2.2-.6,3c-.4.8-1,1.5-1.7,1.9-.7.5-1.6.8-2.6,1ZM288.6,86.3c1,0,1.7-.2,2.2-.6.5-.4.7-1,.7-1.8s-.2-1.5-.7-1.9c-.4-.4-1.2-.6-2.2-.6h-8.5v4.8h8.5Z"/>
      <path d="M315.2,75.7c3,0,5.6.4,7.7,1.3,2.1.8,3.7,2.1,4.9,3.8,1.1,1.7,1.7,3.8,1.7,6.4s-.6,4.7-1.7,6.4c-1.1,1.7-2.8,3-4.9,3.8-2.1.8-4.7,1.3-7.7,1.3s-5.6-.4-7.7-1.3c-2.1-.8-3.7-2.1-4.9-3.8-1.1-1.7-1.7-3.8-1.7-6.4s.6-4.7,1.7-6.4c1.1-1.7,2.7-3,4.9-3.8,2.1-.8,4.7-1.3,7.7-1.3ZM315.2,93.6c1.5,0,2.7-.2,3.8-.7,1-.5,1.8-1.2,2.4-2.1.6-.9.8-2.1.8-3.5s-.3-2.6-.8-3.5c-.6-.9-1.4-1.7-2.4-2.1-1-.5-2.3-.7-3.8-.7s-2.8.2-3.8.7c-1,.5-1.8,1.2-2.4,2.1-.6.9-.8,2.1-.8,3.5s.3,2.6.8,3.5c.6.9,1.4,1.7,2.4,2.1,1,.5,2.3.7,3.8.7Z"/>
      <path d="M349.3,76.4c1.8,0,3.2.2,4.3.7,1.1.5,1.9,1.1,2.4,1.9.5.8.8,1.8.8,3s-.3,2.1-.8,2.8c-.5.7-1.3,1.2-2.3,1.5v.2c1.2.3,2.1.8,2.8,1.6.7.8,1,2,1,3.6s-.3,2.6-.8,3.6c-.5.9-1.4,1.6-2.5,2.1-1.1.5-2.6.7-4.5.7h-17.3v-21.6h16.9ZM339,80.8v4.3h8.1c.9,0,1.6-.2,2-.5.4-.3.6-.9.6-1.6s-.2-1.3-.6-1.6c-.4-.3-1.1-.5-2-.5h-8.1ZM347.3,93.8c.7,0,1.3,0,1.7-.3.4-.2.8-.4,1-.8.2-.4.3-.8.3-1.4,0-.9-.2-1.5-.7-1.9-.5-.4-1.2-.6-2.3-.6h-8.3v4.9h8.3Z"/>
      <path d="M367.1,98h-6.6v-21.6h6.6v21.6Z"/>
      <path d="M395.9,76.4v21.6h-7.5l-11.2-13.8h-.2v13.8h-6.2v-21.6h7.7l11.1,13.7h.2v-13.7h6.2Z"/>
      <path d="M416.2,83c0-1-.5-1.8-1.4-2.2-.9-.4-2.1-.7-3.7-.7s-1.9,0-2.6.2-1.2.4-1.5.7c-.3.3-.5.7-.5,1.2s.2,1,.7,1.3,1.2.5,2.3.6l7.6.8c1.5.2,2.8.5,3.9,1,1.1.5,1.9,1.2,2.5,2.1.6.9.9,2.1.9,3.5s-.5,3.3-1.5,4.4c-1,1.1-2.4,1.8-4.3,2.2s-4.3.6-7.2.6-5.1-.2-7-.7c-1.9-.5-3.3-1.3-4.4-2.4-1-1.2-1.6-2.7-1.6-4.8h7.3c0,1.3.6,2.2,1.6,2.7,1,.5,2.4.7,4.2.7s2.2,0,2.9-.3c.8-.2,1.3-.4,1.7-.8.4-.3.5-.8.5-1.3s-.1-.9-.3-1.2-.5-.5-1-.7c-.5-.2-1.1-.3-1.8-.4l-7.2-.8c-1.5-.2-2.8-.5-3.8-.9-1.1-.4-1.9-1.1-2.5-1.9-.6-.9-1-2-1-3.4s.5-3,1.5-4.1c1-1,2.4-1.8,4.2-2.2,1.8-.4,3.9-.7,6.4-.7s4.6.2,6.4.7c1.8.4,3.2,1.2,4.3,2.3,1.1,1.1,1.6,2.5,1.7,4.3h-7.3Z"/>
      <path d="M440.8,75.7c3,0,5.6.4,7.7,1.3,2.1.8,3.7,2.1,4.9,3.8,1.1,1.7,1.7,3.8,1.7,6.4s-.6,4.7-1.7,6.4c-1.1,1.7-2.8,3-4.9,3.8-2.1.8-4.7,1.3-7.7,1.3s-5.6-.4-7.7-1.3c-2.1-.8-3.7-2.1-4.9-3.8-1.1-1.7-1.7-3.8-1.7-6.4s.6-4.7,1.7-6.4c1.1-1.7,2.7-3,4.9-3.8,2.1-.8,4.7-1.3,7.7-1.3ZM440.8,93.6c1.5,0,2.7-.2,3.8-.7,1-.5,1.8-1.2,2.4-2.1.6-.9.8-2.1.8-3.5s-.3-2.6-.8-3.5c-.6-.9-1.4-1.7-2.4-2.1-1-.5-2.3-.7-3.8-.7s-2.8.2-3.8.7c-1,.5-1.8,1.2-2.4,2.1-.6.9-.8,2.1-.8,3.5s.3,2.6.8,3.5c.6.9,1.4,1.7,2.4,2.1,1,.5,2.3.7,3.8.7Z"/>
      <path d="M483.2,76.4v21.6h-7.5l-11.2-13.8h-.2v13.8h-6.2v-21.6h7.7l11.1,13.7h.2v-13.7h6.2Z"/>
      <path d="M292.1,105.6h6.6v21.6h-6.6v-8.6h-11.9v8.6h-6.6v-21.6h6.6v8.1h11.9v-8.1Z"/>
      <path d="M309,110v4h14.7v4.1h-14.7v4.6h15.6v4.4h-22.2v-21.6h21.9v4.4h-15.3Z"/>
      <path d="M349.7,127.2h-21.9v-21.6h6.6v16.7h15.3v4.9Z"/>
      <path d="M359.3,127.2h-6.6v-21.6h6.6v21.6Z"/>
      <path d="M391.2,118.3c0,2.1-.6,3.8-1.7,5.2-1.1,1.4-2.7,2.5-4.8,3.2-2.1.7-4.7,1.1-7.8,1.1s-5.7-.4-7.9-1.3c-2.2-.8-3.9-2.1-5-3.8-1.1-1.7-1.7-3.9-1.7-6.4s.6-4.7,1.7-6.4c1.1-1.7,2.8-3,5-3.8,2.2-.8,4.8-1.3,7.9-1.3s5.6.4,7.7,1.1c2.1.7,3.7,1.8,4.8,3.1,1.1,1.4,1.7,3,1.8,4.9h-7.8c0-.8-.4-1.5-.9-2.1-.5-.6-1.2-1.1-2.2-1.5-1-.4-2.1-.5-3.4-.5s-2.8.2-3.9.7c-1.1.5-2,1.2-2.6,2.2-.6,1-.9,2.2-.9,3.6s.3,2.6.9,3.6c.6,1,1.5,1.7,2.6,2.2,1.1.5,2.4.7,3.9.7s2.5-.2,3.5-.6c1-.4,1.7-.9,2.2-1.6.5-.7.8-1.5.8-2.4h7.8Z"/>
      <path d="M407.8,104.9c3,0,5.6.4,7.7,1.3,2.1.8,3.7,2.1,4.9,3.8,1.1,1.7,1.7,3.8,1.7,6.4s-.6,4.7-1.7,6.4c-1.1,1.7-2.8,3-4.9,3.8-2.1.8-4.7,1.3-7.7,1.3s-5.6-.4-7.7-1.3c-2.1-.8-3.7-2.1-4.9-3.8-1.1-1.7-1.7-3.8-1.7-6.4s.6-4.7,1.7-6.4c1.1-1.7,2.7-3,4.9-3.8,2.1-.8,4.7-1.3,7.7-1.3ZM407.8,122.8c1.5,0,2.7-.2,3.8-.7,1-.5,1.8-1.2,2.4-2.1.6-.9.8-2.1.8-3.5s-.3-2.6-.8-3.5c-.6-.9-1.4-1.7-2.4-2.1-1-.5-2.3-.7-3.8-.7s-2.8.2-3.8.7c-1,.5-1.8,1.2-2.4,2.1-.6.9-.8,2.1-.8,3.5s.3,2.6.8,3.5c.6.9,1.4,1.7,2.4,2.1,1,.5,2.3.7,3.8.7Z"/>
      <path d="M441.3,105.6c2.1,0,3.8.3,5,.8,1.3.5,2.2,1.3,2.7,2.3.6,1,.8,2.4.8,4.1s-.3,3-.9,4.1c-.6,1-1.5,1.8-2.8,2.3-1.3.5-2.9.7-5,.7h-9.7v7.3h-6.6v-21.6h16.3ZM439.5,115.4c1.1,0,1.9-.2,2.4-.6.5-.4.7-1.1.7-2s-.2-1.6-.7-2c-.5-.4-1.3-.6-2.4-.6h-8v5.2h8Z"/>
      <path d="M475.9,105.6v5h-8.7v16.6h-6.6v-16.6h-8.7v-5h24.1Z"/>
      <path d="M485.2,110v4h14.7v4.1h-14.7v4.6h15.6v4.4h-22.2v-21.6h21.9v4.4h-15.3Z"/>
      <path d="M524.4,118.5l5.3,8.7h-7.4l-4.4-7.4h-7.4v7.4h-6.6v-21.6h16.7c2.1,0,3.7.3,5,.8,1.3.5,2.2,1.3,2.8,2.3.6,1,.9,2.3.9,3.9s-.2,2.2-.6,3c-.4.8-1,1.5-1.7,1.9-.7.5-1.6.8-2.6,1ZM519,115.4c1,0,1.7-.2,2.2-.6.5-.4.7-1,.7-1.8s-.2-1.5-.7-1.9c-.4-.4-1.2-.6-2.2-.6h-8.5v4.8h8.5Z"/>
    </g>
  </g>
  <g id="_x3C_Layer_x3E_">
    <g>
      <path d="M176.8,175.3h10.6v2.8h-15.2v-.5c0-1.2.3-2.2.8-3.1.5-.8,1.2-1.5,2-2,.8-.5,1.7-.9,2.8-1.3l2.9-1.1c.5-.2.9-.4,1.2-.5.3-.2.6-.4.7-.6.2-.2.3-.5.3-.7,0-.5-.2-.9-.7-1.1-.5-.2-1.2-.3-2.1-.3s-1.7.2-2.2.5c-.6.4-.9.9-.9,1.7h-4.6c0-1.2.4-2.2,1-2.9.6-.7,1.5-1.3,2.6-1.6,1.1-.3,2.5-.5,4.1-.5s3,.1,4.1.4c1.1.3,1.9.7,2.5,1.3.6.6.8,1.4.8,2.4s-.2,1.6-.6,2.1c-.4.6-.9,1-1.5,1.3-.6.3-1.4.6-2.3.9,0,0,0,0,0,0,0,0,0,0,0,0l-4.5,1.4c-.4.2-.8.4-1.1.6-.3.2-.5.4-.5.7Z"/>
      <path d="M197.2,164.2c1.9,0,3.4.3,4.7.8,1.2.5,2.1,1.4,2.7,2.4s.9,2.4.9,4-.3,2.9-.9,4c-.6,1.1-1.5,1.9-2.7,2.4-1.2.5-2.8.8-4.7.8s-3.4-.3-4.6-.8c-1.2-.5-2.1-1.4-2.8-2.4-.6-1.1-.9-2.4-.9-4s.3-2.9.9-4,1.5-1.9,2.7-2.4c1.2-.5,2.8-.8,4.6-.8ZM197.2,175.5c.9,0,1.6-.2,2.2-.5.6-.3,1-.8,1.3-1.4.3-.6.4-1.4.4-2.3,0-1.4-.3-2.4-1-3.1s-1.6-1-3-1-1.6.2-2.2.5-1,.8-1.3,1.4c-.3.6-.4,1.4-.4,2.3,0,1.4.3,2.4,1,3.1.7.7,1.6,1,2.9,1Z"/>
      <path d="M211.2,175.3h10.6v2.8h-15.2v-.5c0-1.2.3-2.2.8-3.1.5-.8,1.2-1.5,2-2,.8-.5,1.7-.9,2.8-1.3l2.9-1.1c.5-.2.9-.4,1.2-.5.3-.2.6-.4.7-.6.2-.2.3-.5.3-.7,0-.5-.2-.9-.7-1.1-.5-.2-1.2-.3-2.1-.3s-1.7.2-2.2.5c-.6.4-.9.9-.9,1.7h-4.6c0-1.2.4-2.2,1-2.9.6-.7,1.5-1.3,2.6-1.6,1.1-.3,2.5-.5,4.1-.5s3,.1,4.1.4c1.1.3,1.9.7,2.5,1.3.6.6.8,1.4.8,2.4s-.2,1.6-.6,2.1c-.4.6-.9,1-1.5,1.3-.6.3-1.4.6-2.3.9,0,0,0,0,0,0,0,0,0,0,0,0l-4.5,1.4c-.4.2-.8.4-1.1.6-.3.2-.5.4-.5.7Z"/>
      <path d="M231.8,168.9c1.4,0,2.6.2,3.6.5s1.7.9,2.2,1.6c.5.7.7,1.6.7,2.7s-.3,2.1-.8,2.8c-.5.7-1.4,1.2-2.5,1.6s-2.6.5-4.3.5-3.2-.2-4.3-.5c-1.1-.3-1.9-.8-2.4-1.4-.5-.6-.8-1.5-.9-2.5h4.6c0,.5.3.9.8,1.2.5.3,1.2.4,2.2.4s1.2,0,1.7-.2c.4-.1.8-.3,1-.7s.4-.7.4-1.2-.1-.9-.4-1.2-.6-.5-1-.7c-.4-.1-1-.2-1.7-.2s-1.3,0-1.7.2c-.5.1-.8.3-1.2.6h-4.4l.5-7.9h13.5v2.8h-9.9l-.2,2.5h.1c.5-.3,1.1-.5,1.8-.7s1.5-.3,2.5-.3Z"/>
      <path d="M86.2,199l-4.8-10.4h0l-4.8,10.4h-4.5l6.7-13.9h5.4l6.7,13.9h-4.6ZM76.4,193.8h9.9l1.1,2.9h-12l1-2.9Z"/>
      <path d="M106.9,193.3c0,1.5-.3,2.7-1,3.6-.6.9-1.6,1.6-2.7,2-1.2.4-2.6.6-4.3.6s-3.1-.2-4.3-.6c-1.2-.4-2.1-1.1-2.7-2-.6-.9-1-2.1-1-3.6v-8.2h4.2v8.1c0,1,.3,1.8,1,2.2.7.5,1.6.7,2.8.7s2.2-.2,2.8-.7c.7-.5,1-1.2,1-2.2v-8.1h4.2v8.2Z"/>
      <path d="M124.2,185.2v3.2h-5.6v10.7h-4.2v-10.7h-5.6v-3.2h15.5Z"/>
      <path d="M137.8,185.2h4.3v13.9h-4.3v-5.5h-7.7v5.5h-4.2v-13.9h4.2v5.2h7.7v-5.2Z"/>
      <path d="M153.2,184.7c1.9,0,3.6.3,5,.8,1.4.5,2.4,1.4,3.1,2.5.7,1.1,1.1,2.5,1.1,4.1s-.4,3-1.1,4.1c-.7,1.1-1.8,1.9-3.1,2.5-1.4.5-3,.8-5,.8s-3.6-.3-5-.8c-1.4-.5-2.4-1.4-3.1-2.5-.7-1.1-1.1-2.5-1.1-4.1s.4-3,1.1-4.1c.7-1.1,1.8-1.9,3.1-2.5,1.4-.5,3-.8,5-.8ZM153.2,196.2c.9,0,1.8-.2,2.4-.5.7-.3,1.2-.8,1.5-1.4.4-.6.5-1.4.5-2.3s-.2-1.7-.5-2.3-.9-1.1-1.5-1.4c-.7-.3-1.5-.5-2.4-.5s-1.8.2-2.4.5c-.7.3-1.2.8-1.5,1.4s-.5,1.4-.5,2.3.2,1.7.5,2.3c.4.6.9,1.1,1.5,1.4.7.3,1.5.5,2.4.5Z"/>
      <path d="M177.4,193.5l3.4,5.6h-4.7l-2.8-4.7h-4.8v4.7h-4.2v-13.9h10.7c1.3,0,2.4.2,3.2.5s1.4.8,1.8,1.5c.4.7.6,1.5.6,2.5s-.1,1.4-.4,2-.6.9-1.1,1.2c-.5.3-1,.5-1.6.6ZM173.9,191.5c.6,0,1.1-.1,1.4-.4.3-.2.4-.6.4-1.2s-.1-.9-.4-1.2c-.3-.3-.8-.4-1.4-.4h-5.4v3.1h5.4Z"/>
      <path d="M186.6,199h-4.2v-13.9h4.2v13.9Z"/>
      <path d="M203.4,188.3l-8.3,7.5h8.3v3.3h-14.9v-3.1l8.3-7.5h-7.8v-3.3h14.4v3.1Z"/>
      <path d="M209.7,188v2.6h9.4v2.7h-9.4v2.9h10v2.8h-14.2v-13.9h14.1v2.9h-9.8Z"/>
      <path d="M230.5,185.2c1.7,0,3.2.2,4.3.7,1.1.5,2,1.2,2.6,2.2s.9,2.4.9,4-.3,3-.9,4-1.4,1.8-2.6,2.2c-1.1.5-2.6.7-4.3.7h-8.7v-13.9h8.7ZM229.4,195.9c.9,0,1.7-.1,2.3-.4.6-.3,1.1-.7,1.4-1.2.3-.6.5-1.3.5-2.2,0-1.3-.3-2.3-1-2.9s-1.7-.9-3.1-.9h-3.4v7.6h3.4Z"/>
      <path d="M144.7,206c1.7,0,3.2.2,4.3.7,1.1.5,2,1.2,2.6,2.2.6,1,.9,2.4.9,4s-.3,3-.9,4c-.6,1-1.4,1.8-2.6,2.2-1.1.5-2.6.7-4.3.7h-8.7v-13.9h8.7ZM143.7,216.8c.9,0,1.7-.1,2.3-.4.6-.3,1.1-.7,1.4-1.2.3-.6.5-1.3.5-2.2,0-1.3-.3-2.3-1-2.9-.7-.6-1.7-.9-3.1-.9h-3.4v7.6h3.4Z"/>
      <path d="M158.6,208.9v2.6h9.4v2.7h-9.4v2.9h10v2.8h-14.2v-13.9h14.1v2.9h-9.8Z"/>
      <path d="M183.8,219.9l-4.8-10.4h0l-4.8,10.4h-4.5l6.7-13.9h5.4l6.7,13.9h-4.6ZM174,214.6h9.9l1.1,2.9h-12l1-2.9Z"/>
      <path d="M203.7,219.9h-14.1v-13.9h4.2v10.7h9.8v3.2Z"/>
      <path d="M209.9,208.9v2.6h9.4v2.7h-9.4v2.9h10v2.8h-14.2v-13.9h14.1v2.9h-9.8Z"/>
      <path d="M235.1,214.3l3.4,5.6h-4.7l-2.8-4.7h-4.8v4.7h-4.2v-13.9h10.7c1.3,0,2.4.2,3.2.5s1.4.8,1.8,1.5c.4.7.6,1.5.6,2.5s-.1,1.4-.4,2c-.3.5-.6.9-1.1,1.2-.5.3-1,.5-1.6.6ZM231.7,212.4c.6,0,1.1-.1,1.4-.4.3-.2.4-.6.4-1.2s-.1-.9-.4-1.2c-.3-.3-.8-.4-1.4-.4h-5.4v3.1h5.4Z"/>
    </g>
  </g>
</svg>